<svg xmlns="http://www.w3.org/2000/svg" viewBox="0 0 511.98 511.98">
	<path fill="#ffce54" d="M30.92 165.12h448.99v310.02H30.92z"/>
	<path fill="#4fc2e9" d="M324.68 270.93h93.47v196.42h-93.47z"/>
	<path fill="#e6e9ed" d="M35.5 36.84h439.25v64.81H35.5z"/>
	<path fill="#4fc2e9" d="M84.37 272.02H276.8v128.29H84.37z"/>
	<path fill="#f5f7fa" d="M73.68 261.34V411H287.5V261.34H73.7zM266.1 389.6H95.06v-106.9H266.1v106.9zM308.87 261.34v213.8h128.27v-213.8H308.87zm106.9 192.43h-85.53V282.7h85.53v171.06z"/>
	<path fill="#3bafda" d="M244.65 336.16c-2.97 0-5.63 1.2-7.56 3.14l-21.38 21.38a10.7 10.7 0 0015.1 15.13h.01l21.4-21.4a10.68 10.68 0 00-7.57-18.25zM252.21 311.66a10.68 10.68 0 10-15.13-15.12l-64.13 64.14a10.68 10.68 0 1015.1 15.13l64.16-64.15z"/>
	<path d="M418.14 357.55h-98.59a10.68 10.68 0 100 21.38h98.6a10.68 10.68 0 100-21.38z" fill="#f5f7fa"/>
	<path d="M450.9 239.96a61.1 61.1 0 0060.33-70.64l-.34-1.92-.16-.89-35.4-86.9h-87.97l14.66 135.91 2.06 2.6a61 61 0 0046.81 21.84z" fill="#da4453"/>
	<path d="M299.4 79.6l4.87 135.92a61.06 61.06 0 0097.75 0L387.36 79.61H299.4z" fill="#e6e9ed"/>
	<path d="M61.08 239.96A61.09 61.09 0 01.75 169.32H.73l.36-1.92.16-.89 35.4-86.9h87.95l-14.67 135.91-2.05 2.6a60.97 60.97 0 01-46.8 21.84z" fill="#da4453"/>
	<path d="M212.57 79.6l-4.89 135.92a61.06 61.06 0 01-97.75 0l14.68-135.91h87.96z" fill="#e6e9ed"/>
	<path d="M211.43 79.6l-4.88 135.92c11.13 14.83 28.88 24.44 48.86 24.44s37.74-9.6 48.86-24.44L299.4 79.61h-87.97z" fill="#da4453"/>
	<path d="M1.19 166.84a94 94 0 01-.1.56l-.36 1.92h.02a61.09 61.09 0 00107.14 48.8l2.04-2.6 5.27-48.68H1.19z" fill="#ed5564"/>
	<path d="M115.2 166.84l-5.27 48.68a61.06 61.06 0 0097.75 0l1.75-48.68H115.2z" fill="#f5f7fa"/>
	<path d="M208.3 166.84l-1.75 48.68c11.13 14.83 28.88 24.44 48.86 24.44s37.74-9.6 48.86-24.44l-1.75-48.68h-94.21z" fill="#ed5564"/>
	<path d="M302.52 166.84l1.75 48.68a61.06 61.06 0 0097.75 0l-5.25-48.68h-94.25z" fill="#f5f7fa"/>
	<path d="M511.23 169.32l-.34-1.92c-.03-.19-.08-.37-.1-.56H396.76l5.25 48.68 2.06 2.6a61.1 61.1 0 00107.15-48.8z" fill="#ed5564"/>
</svg>